<?xml version="1.0" encoding="iso-8859-1"?>
<!-- Generator: Adobe Illustrator 19.0.0, SVG Export Plug-In . SVG Version: 6.00 Build 0)  -->
<svg version="1.1" id="Layer_1" xmlns="http://www.w3.org/2000/svg" xmlns:xlink="http://www.w3.org/1999/xlink" x="0px" y="0px"
	 viewBox="0 0 511.88 511.88" style="enable-background:new 0 0 511.88 511.88;" xml:space="preserve">
<rect x="213.291" y="309.649" style="fill:#E6E9ED;" width="85.31" height="159.57"/>
<rect x="255.941" y="319.929" style="fill:#F5F7FA;" width="21.338" height="149.29"/>
<rect y="63.979" style="fill:#AC92EB;" width="511.88" height="277.26"/>
<polygon style="fill:#E6E9ED;" points="42.662,266.609 97.508,175.193 152.355,266.609 "/>
<polygon style="fill:#F5F7FA;" points="88.354,266.609 161.494,138.639 234.617,266.609 "/>
<g>
	<path style="fill:#434A54;" d="M287.933,202.624h85.324c5.889,0,10.654-4.78,10.654-10.669c0-5.889-4.766-10.669-10.654-10.669
		h-85.324c-5.889,0-10.654,4.78-10.654,10.669S282.045,202.624,287.933,202.624z"/>
	<path style="fill:#434A54;" d="M437.243,223.947h-149.31c-5.889,0-10.654,4.78-10.654,10.669c0,5.89,4.766,10.654,10.654,10.654
		h149.31c5.89,0,10.653-4.764,10.653-10.654C447.896,228.727,443.132,223.947,437.243,223.947z"/>
	<path style="fill:#434A54;" d="M85.324,63.983H42.662c-5.89,0-10.669-4.78-10.669-10.669c0-5.89,4.78-10.654,10.669-10.654h42.662
		c5.874,0,10.654,4.765,10.654,10.654C95.978,59.203,91.197,63.983,85.324,63.983z"/>
	<path style="fill:#434A54;" d="M213.294,63.983h-42.662c-5.89,0-10.669-4.78-10.669-10.669c0-5.89,4.78-10.654,10.669-10.654
		h42.662c5.89,0,10.654,4.765,10.654,10.654S219.184,63.983,213.294,63.983z"/>
	<path style="fill:#434A54;" d="M341.265,63.983h-42.662c-5.89,0-10.67-4.78-10.67-10.669c0-5.89,4.78-10.654,10.67-10.654h42.662
		c5.889,0,10.653,4.765,10.653,10.654C351.919,59.203,347.154,63.983,341.265,63.983z"/>
	<path style="fill:#434A54;" d="M469.236,63.983h-42.662c-5.89,0-10.67-4.78-10.67-10.669c0-5.89,4.78-10.654,10.67-10.654h42.662
		c5.889,0,10.653,4.765,10.653,10.654S475.125,63.983,469.236,63.983z"/>
</g>
<g>
</g>
<g>
</g>
<g>
</g>
<g>
</g>
<g>
</g>
<g>
</g>
<g>
</g>
<g>
</g>
<g>
</g>
<g>
</g>
<g>
</g>
<g>
</g>
<g>
</g>
<g>
</g>
<g>
</g>
</svg>
