<?xml version="1.0" encoding="iso-8859-1"?>
<!-- Generator: Adobe Illustrator 19.0.0, SVG Export Plug-In . SVG Version: 6.00 Build 0)  -->
<svg version="1.1" id="Layer_1" xmlns="http://www.w3.org/2000/svg" xmlns:xlink="http://www.w3.org/1999/xlink" x="0px" y="0px"
	 viewBox="0 0 512 512" style="enable-background:new 0 0 512 512;" xml:space="preserve">
<g>
	<path style="fill:#FFFFFF;" d="M55.855,27.927c-10.264,0-18.618,8.35-18.618,18.618s8.354,18.618,18.618,18.618
		s18.618-8.35,18.618-18.618S66.118,27.927,55.855,27.927z"/>
	<path style="fill:#FFFFFF;" d="M372.364,55.855c5.145,0,9.309,4.168,9.309,9.309s-4.164,9.309-9.309,9.309h-18.618v46.545h46.545
		V41.9c0-12.836-10.436-23.282-23.273-23.282c-12.836,0-23.273,10.445-23.273,23.282v13.955H372.364z"/>
</g>
<path style="fill:#5ECB66;" d="M406.782,303.8c-3.864-1.227-6.491-4.814-6.491-8.873V139.682h-46.545v46.5h18.618
	c5.145,0,9.309,4.168,9.309,9.309s-4.164,9.309-9.309,9.309h-18.618v46.545h18.618c5.145,0,9.309,4.168,9.309,9.309
	c0,5.141-4.164,9.309-9.309,9.309h-18.618v24.964c0,4.059-2.627,7.646-6.491,8.873c-40.664,12.9-67.982,50.073-67.982,92.5
	c0,53.532,43.845,97.082,97.745,97.082s97.745-43.55,97.745-97.082C474.764,353.873,447.445,316.7,406.782,303.8z"/>
<g>
	<path style="fill:#314E55;" d="M418.909,288.323V139.636v-9.264V41.9c0-23.104-18.791-41.9-41.891-41.9s-41.891,18.796-41.891,41.9
		v88.473v9.264v148.686c-44.818,17.127-74.473,59.695-74.473,107.977c0,63.795,52.2,115.7,116.364,115.7
		s116.364-51.904,116.364-115.7C493.382,348.018,463.727,305.45,418.909,288.323z M377.018,18.618
		c12.836,0,23.273,10.445,23.273,23.282v79.118h-46.545V74.473h18.618c5.145,0,9.309-4.168,9.309-9.309s-4.164-9.309-9.309-9.309
		h-18.618V41.9C353.745,29.064,364.182,18.618,377.018,18.618z M377.018,493.382c-53.9,0-97.745-43.55-97.745-97.082
		c0-42.427,27.318-79.6,67.982-92.5c3.864-1.227,6.491-4.814,6.491-8.873v-24.964h18.618c5.145,0,9.309-4.168,9.309-9.309
		c0-5.141-4.164-9.309-9.309-9.309h-18.618V204.8h18.618c5.145,0,9.309-4.168,9.309-9.309s-4.164-9.309-9.309-9.309h-18.618v-46.5
		h46.545v155.245c0,4.059,2.627,7.646,6.491,8.873c40.664,12.9,67.982,50.073,67.982,92.5
		C474.764,449.832,430.918,493.382,377.018,493.382z"/>
	<path style="fill:#314E55;" d="M235.073,218.318c-16.427,18.536-40.036,29.168-64.782,29.168c-47.7,0-86.509-38.804-86.509-86.505
		s38.809-86.509,86.509-86.509c24.5,0,47.946,10.45,64.336,28.673c3.436,3.827,9.309,4.132,13.145,0.7
		c3.818-3.441,4.136-9.323,0.691-13.145c-19.909-22.146-48.4-34.846-78.173-34.846c-57.964,0-105.127,47.159-105.127,105.127
		c0,57.964,47.164,105.123,105.127,105.123c30.073,0,58.755-12.918,78.709-35.441c3.409-3.845,3.055-9.732-0.791-13.141
		C244.373,214.123,238.482,214.468,235.073,218.318z"/>
	<path style="fill:#314E55;" d="M93.091,46.545c0-20.532-16.7-37.236-37.236-37.236S18.618,26.014,18.618,46.545
		s16.7,37.236,37.236,37.236S93.091,67.077,93.091,46.545z M55.855,65.164c-10.264,0-18.618-8.35-18.618-18.618
		s8.354-18.618,18.618-18.618s18.618,8.35,18.618,18.618S66.118,65.164,55.855,65.164z"/>
</g>
<g>
</g>
<g>
</g>
<g>
</g>
<g>
</g>
<g>
</g>
<g>
</g>
<g>
</g>
<g>
</g>
<g>
</g>
<g>
</g>
<g>
</g>
<g>
</g>
<g>
</g>
<g>
</g>
<g>
</g>
</svg>
