<?xml version="1.0" encoding="iso-8859-1"?>
<!-- Generator: Adobe Illustrator 19.0.0, SVG Export Plug-In . SVG Version: 6.00 Build 0)  -->
<svg version="1.1" id="Capa_1" xmlns="http://www.w3.org/2000/svg" xmlns:xlink="http://www.w3.org/1999/xlink" x="0px" y="0px"
	 viewBox="0 0 512 512" style="enable-background:new 0 0 512 512;" xml:space="preserve">
<rect x="198.471" y="108.72" style="fill:#787780;" width="115.07" height="92.74"/>
<rect x="256.001" y="108.72" style="fill:#57555C;" width="57.53" height="92.74"/>
<polygon style="fill:#FFA91E;" points="466.936,512 45.066,512 95.016,171.277 416.986,171.277 "/>
<rect x="150.431" y="55.11" style="fill:#2799FF;" width="211.15" height="83.79"/>
<rect x="256.001" y="55.11" style="fill:#1A68E5;" width="105.57" height="83.79"/>
<polygon style="fill:#FF8900;" points="466.936,512 256.001,512 256.001,171.277 416.986,171.277 "/>
<rect x="15.559" style="fill:#C8C6CD;" width="480.88" height="85.29"/>
<rect x="256.001" style="fill:#AEADB3;" width="240.44" height="85.29"/>
<circle style="fill:#FFFFFF;" cx="256.001" cy="343.49" r="116.8"/>
<path style="fill:#C8C6CD;" d="M372.801,343.49c0,64.507-52.293,116.8-116.8,116.8V226.689
	C320.508,226.689,372.801,278.983,372.801,343.49z"/>
<path style="fill:#787780;" d="M240.642,366.632l-12.969-19.975l-5.301,5.49v14.484h-15.147v-69.107h15.147v40.044l16.756-20.637
	h16.093l-17.892,21.395l19.407,28.306H240.642z"/>
<path style="fill:#57555C;" d="M277.941,366.821c-3.282,0-6.28-0.663-8.993-1.988c-2.714-1.325-5.034-3.124-6.958-5.396
	c-1.926-2.272-3.424-4.923-4.497-7.952c-1.074-3.029-1.609-6.279-1.609-9.75c0-3.66,0.568-7.053,1.704-10.177
	s2.713-5.837,4.733-8.142c2.019-2.303,4.449-4.118,7.289-5.443c2.84-1.325,5.965-1.988,9.372-1.988c3.787,0,7.084,0.805,9.893,2.414
	c2.807,1.609,5.065,3.834,6.769,6.674v-8.142h13.159v46.292c0,3.787-0.71,7.195-2.13,10.224s-3.393,5.6-5.917,7.715
	c-2.525,2.114-5.554,3.739-9.088,4.875c-3.535,1.136-7.417,1.704-11.644,1.704c-5.365,0-9.94-0.852-13.727-2.556
	c-3.786-1.704-7.1-4.165-9.94-7.384l8.141-8.236c1.83,2.083,4.102,3.739,6.816,4.97c2.713,1.23,5.617,1.846,8.71,1.846
	c1.83,0,3.565-0.253,5.207-0.757c1.64-0.506,3.091-1.278,4.355-2.32c1.261-1.041,2.256-2.399,2.982-4.07
	c0.725-1.673,1.089-3.676,1.089-6.012v-4.828c-1.514,2.778-3.692,4.875-6.532,6.295
	C284.283,366.111,281.221,366.821,277.941,366.821z M283.147,354.798c2.334,0,4.417-0.646,6.248-1.94
	c1.83-1.293,3.25-2.949,4.26-4.97v-10.414c-1.01-2.651-2.556-4.748-4.639-6.295c-2.083-1.546-4.292-2.32-6.627-2.32
	c-1.642,0-3.14,0.364-4.497,1.089c-1.358,0.726-2.525,1.704-3.503,2.935c-0.979,1.231-1.737,2.651-2.272,4.26
	c-0.537,1.609-0.805,3.266-0.805,4.97c0,1.831,0.299,3.519,0.899,5.065c0.599,1.547,1.435,2.887,2.509,4.023
	c1.072,1.136,2.32,2.021,3.739,2.651C279.881,354.483,281.443,354.798,283.147,354.798z"/>
<g>
</g>
<g>
</g>
<g>
</g>
<g>
</g>
<g>
</g>
<g>
</g>
<g>
</g>
<g>
</g>
<g>
</g>
<g>
</g>
<g>
</g>
<g>
</g>
<g>
</g>
<g>
</g>
<g>
</g>
</svg>
